<?xml version="1.0" encoding="utf-8"?>
<!-- Generator: Adobe Illustrator 17.1.0, SVG Export Plug-In . SVG Version: 6.00 Build 0)  -->
<!DOCTYPE svg PUBLIC "-//W3C//DTD SVG 1.1//EN" "http://www.w3.org/Graphics/SVG/1.1/DTD/svg11.dtd">
<svg version="1.1" id="Layer_1" xmlns="http://www.w3.org/2000/svg" xmlns:xlink="http://www.w3.org/1999/xlink" x="0px" y="0px"
	 viewBox="0 0 328 106.1" enable-background="new 0 0 328 106.1" xml:space="preserve">
	<title>logo</title>
<g>
	<g>
		<path d="M10.8,7.9h9.9c6.8,0,18.2,0.8,18.2,17.2v1.5c0,9.1-2.7,14.8-7.8,17.4l9.6,24h-9.6l-8-22.5h-3.4V68h-8.9V7.9z M21.1,38.9
			c6.4,0,8.6-2.6,8.6-10.7v-4.7c0-6.2-2-8.9-8.6-8.9h-1.4v24.4H21.1z"/>
		<path d="M90.8,48l-12.1-40h9.2l7.3,28.7h0.4l7.3-28.7h9.1L99.9,48v20h-9.1V48z"/>
		<path d="M148.9,7.9h9.3l6.6,47.6h0.4l6.6-47.6h9.3l-10.9,60h-10.4L148.9,7.9z"/>
		<path d="M229.6,7.9H240l11.1,60h-9.2l-1.7-10.8h-11L227.7,68h-9.2L229.6,7.9z M239.2,50.4L235,20.4h-0.4l-4.3,29.9H239.2z"/>
		<path d="M292.9,7.9h9.1v52.9h12.4V68h-21.5V7.9z"/>
	</g>
	<g>
		<path d="M95.1,96c0,0.2-0.1,0.3-0.2,0.4s-0.3,0.2-0.5,0.2c-0.2,0-0.3-0.1-0.5-0.2c-0.1-0.1-0.2-0.2-0.2-0.4V82.9h-1.3
			c-0.2,0-0.3-0.1-0.5-0.2s-0.2-0.2-0.2-0.4c0-0.2,0.1-0.3,0.2-0.4c0.1-0.1,0.3-0.2,0.5-0.2h1.9c0.3,0,0.5,0.1,0.6,0.2l9.4,12.1
			V82.9H103c-0.2,0-0.3-0.1-0.4-0.2c-0.1-0.1-0.2-0.2-0.2-0.4c0-0.2,0.1-0.3,0.2-0.4s0.2-0.2,0.4-0.2h4.1c0.2,0,0.3,0.1,0.4,0.2
			c0.1,0.1,0.2,0.2,0.2,0.4c0,0.2-0.1,0.3-0.2,0.4c-0.1,0.1-0.2,0.2-0.4,0.2h-1.4v13.1c0,0.4-0.2,0.6-0.6,0.6
			c-0.2,0-0.4-0.1-0.6-0.3l-9.4-12V96z"/>
		<path d="M125.7,94.4c-1.4-1.4-2-3.2-2-5.4s0.7-4,2-5.4c1.4-1.4,3.1-2.1,5.2-2.1c2.1,0,3.9,0.7,5.2,2.1c1.4,1.4,2,3.2,2,5.4
			c0,2.2-0.7,4-2,5.4s-3.1,2.1-5.2,2.1C128.8,96.6,127,95.8,125.7,94.4z M126.6,84.4c-1.1,1.2-1.7,2.7-1.7,4.6s0.6,3.4,1.7,4.6
			c1.1,1.2,2.5,1.8,4.3,1.8c1.8,0,3.2-0.6,4.3-1.8c1.1-1.2,1.7-2.7,1.7-4.6s-0.6-3.4-1.7-4.6c-1.1-1.2-2.5-1.8-4.3-1.8
			C129.1,82.6,127.7,83.2,126.6,84.4z"/>
		<path d="M157.4,90.7V96c0,0.2-0.1,0.3-0.2,0.4s-0.3,0.2-0.5,0.2c-0.2,0-0.3-0.1-0.5-0.2c-0.1-0.1-0.2-0.2-0.2-0.4V82.9h-1.4
			c-0.2,0-0.3-0.1-0.4-0.2c-0.1-0.1-0.2-0.2-0.2-0.4c0-0.2,0.1-0.3,0.2-0.4s0.2-0.2,0.4-0.2h7.5c3.5,0,5.3,1.5,5.3,4.5
			c0,2.2-1,3.6-2.9,4.2l3.1,5.4c0,0.1,0,0.1,0,0.2c0,0.2-0.1,0.4-0.3,0.5c-0.2,0.1-0.3,0.1-0.5,0.1c-0.1,0-0.3-0.1-0.4-0.3l-3.3-5.6
			c-0.4,0-0.8,0-1.1,0H157.4z M157.4,82.9v6.8h4.8c2.6,0,4-1.1,4-3.4c0-1.2-0.3-2.1-1-2.6c-0.7-0.5-1.7-0.8-3-0.8H157.4z"/>
		<path d="M190.1,81.8c0.1-0.1,0.2-0.2,0.3-0.3c0.1,0,0.2-0.1,0.3-0.1c0.3,0,0.5,0.1,0.6,0.3l1.9,4.7l2-4.7c0.1-0.2,0.2-0.3,0.4-0.3
			c0.2,0,0.3,0,0.5,0.1c0.1,0,0.2,0.1,0.3,0.3c0.1,0.2,0.1,0.3,0,0.4l-2.4,5.7l2.7,6.5l5.3-12.7c0.1-0.2,0.2-0.3,0.4-0.3
			c0.4,0,0.6,0.1,0.7,0.4c0,0.1,0,0.1,0,0.2s0,0.2,0,0.2l-5.8,13.8c-0.1,0.3-0.3,0.4-0.6,0.4s-0.5-0.1-0.6-0.4l-2.7-6.5l-2.7,6.5
			c-0.1,0.3-0.3,0.4-0.6,0.4c-0.3,0-0.5-0.1-0.6-0.4l-5.9-13.9c0-0.1,0-0.1,0-0.2c0-0.3,0.1-0.4,0.4-0.5c0.1,0,0.2,0,0.3,0
			c0.3,0,0.5,0.1,0.6,0.3l5.4,12.7l2.6-6.5l-2.4-5.8C190,82.1,190,82,190.1,81.8z"/>
		<path d="M222.3,81.7h2.1c0.3,0,0.4,0.1,0.5,0.3l6.8,13.7c0,0.1,0,0.1,0,0.2c0,0.3-0.1,0.5-0.4,0.6c-0.1,0-0.2,0-0.3,0
			c-0.3,0-0.5-0.1-0.6-0.3l-2.2-4.5h-8l-2.2,4.5c-0.1,0.3-0.4,0.4-0.8,0.3c-0.3-0.1-0.4-0.3-0.4-0.5c0-0.1,0-0.1,0-0.2l6.4-12.9h-1
			c-0.2,0-0.3-0.1-0.4-0.2c-0.1-0.1-0.2-0.2-0.2-0.4c0-0.2,0.1-0.3,0.2-0.4C222,81.8,222.1,81.7,222.3,81.7z M224.3,83.4l-3.5,7.2h7
			L224.3,83.4z"/>
		<path d="M257.2,81.7c0.1-0.2,0.3-0.3,0.4-0.3c0.1,0,0.3,0,0.4,0.1c0.2,0.1,0.3,0.3,0.3,0.4s0,0.3-0.1,0.4l-6,8.6v5
			c0,0.2-0.1,0.3-0.2,0.4s-0.3,0.2-0.5,0.2c-0.2,0-0.3-0.1-0.5-0.2s-0.2-0.2-0.2-0.4v-5l-6-8.7c0-0.1-0.1-0.2-0.1-0.2
			c0-0.3,0.1-0.4,0.3-0.5c0.2-0.1,0.3-0.1,0.5-0.1c0.2,0,0.3,0.1,0.4,0.3l5.6,8.2L257.2,81.7z"/>
	</g>
	<g>
	</g>
	<g>
	</g>
</g>
</svg>
